<svg width="1200" height="675" viewBox="0 0 1200 675" fill="none" xmlns="http://www.w3.org/2000/svg">
  <rect width="1200" height="675" fill="#070A12"/>
  <g opacity="0.55">
    <path d="M0 0H1200V675H0V0Z" fill="url(#grid)"/>
    <circle cx="188" cy="42" r="350" fill="#2563EB" opacity="0.16"/>
    <circle cx="972" cy="64" r="260" fill="#14B8A6" opacity="0.12"/>
  </g>
  <rect x="93" y="72" width="1014" height="531" rx="20" fill="#020617" fill-opacity="0.86" stroke="#1E293B" stroke-width="2"/>
  <rect x="93" y="72" width="1014" height="66" rx="20" fill="#0F172A"/>
  <path d="M93 118H1107V140H93V118Z" fill="#0F172A"/>
  <circle cx="133" cy="105" r="10" fill="#F87171"/>
  <circle cx="164" cy="105" r="10" fill="#FBBF24"/>
  <circle cx="195" cy="105" r="10" fill="#34D399"/>
  <rect x="760" y="92" width="171" height="26" rx="7" fill="#111827" stroke="#334155"/>
  <text x="846" y="110" text-anchor="middle" font-family="ui-monospace, SFMono-Regular, Menlo, Monaco, Consolas, monospace" font-size="13" fill="#94A3B8">shadcn audit</text>
  <rect x="951" y="90" width="120" height="30" rx="8" fill="#FEF3C7" fill-opacity="0.1" stroke="#FBBF24" stroke-opacity="0.35"/>
  <text x="1011" y="110" text-anchor="middle" font-family="Inter, ui-sans-serif, system-ui, sans-serif" font-size="13" font-weight="600" fill="#FDE68A">needs-work</text>

  <g transform="translate(141 179)">
    <rect width="392" height="36" rx="9" fill="#0F172A" stroke="#334155"/>
    <text x="18" y="23" font-family="Inter, ui-sans-serif, system-ui, sans-serif" font-size="15" font-weight="600" fill="#CBD5E1">Open-source shadcn/ui audit</text>
    <text x="0" y="102" font-family="Inter, ui-sans-serif, system-ui, sans-serif" font-size="64" font-weight="700" letter-spacing="0" fill="#F8FAFC">RegistryDoctor</text>
    <text x="0" y="150" font-family="Inter, ui-sans-serif, system-ui, sans-serif" font-size="24" fill="#94A3B8">Audit setup, tokens, accessibility</text>
    <text x="0" y="184" font-family="Inter, ui-sans-serif, system-ui, sans-serif" font-size="24" fill="#94A3B8">and registry readiness in one dashboard.</text>
    <rect x="0" y="230" width="391" height="76" rx="13" fill="#020617" stroke="#1E293B"/>
    <text x="25" y="260" font-family="ui-monospace, SFMono-Regular, Menlo, Monaco, Consolas, monospace" font-size="21" fill="#64748B">$</text>
    <text x="50" y="260" font-family="ui-monospace, SFMono-Regular, Menlo, Monaco, Consolas, monospace" font-size="21" fill="#E2E8F0">registry-doctor scan .</text>
    <text x="25" y="289" font-family="ui-monospace, SFMono-Regular, Menlo, Monaco, Consolas, monospace" font-size="17" fill="#64748B">Found 21 findings in shadcn-bad</text>
  </g>

  <g transform="translate(612 178)">
    <rect width="435" height="328" rx="17" fill="#0F172A" fill-opacity="0.88" stroke="#1E293B"/>
    <rect width="435" height="64" rx="17" fill="#111827"/>
    <path d="M0 47H435V65H0V47Z" fill="#111827"/>
    <text x="28" y="39" font-family="Inter, ui-sans-serif, system-ui, sans-serif" font-size="18" font-weight="700" fill="#F8FAFC">Audit overview</text>
    <text x="346" y="39" font-family="ui-monospace, SFMono-Regular, Menlo, Monaco, Consolas, monospace" font-size="14" fill="#94A3B8">next</text>
    <circle cx="116" cy="170" r="66" fill="none" stroke="#334155" stroke-width="22"/>
    <path d="M116 104A66 66 0 0 1 169 209" stroke="#F8FAFC" stroke-width="22" stroke-linecap="round"/>
    <circle cx="116" cy="170" r="42" fill="#020617" stroke="#334155"/>
    <text x="116" y="164" text-anchor="middle" font-family="Inter, ui-sans-serif, system-ui, sans-serif" font-size="34" font-weight="700" fill="#F8FAFC">56</text>
    <text x="116" y="190" text-anchor="middle" font-family="Inter, ui-sans-serif, system-ui, sans-serif" font-size="14" fill="#64748B">score</text>
    <g transform="translate(220 107)" font-family="Inter, ui-sans-serif, system-ui, sans-serif" font-size="16">
      <text x="0" y="20" fill="#CBD5E1">Errors</text>
      <rect x="91" y="8" width="98" height="9" rx="5" fill="#1E293B"/>
      <rect x="91" y="8" width="13" height="9" rx="5" fill="#F87171"/>
      <text x="210" y="20" fill="#FCA5A5" font-weight="700">1</text>
      <text x="0" y="69" fill="#CBD5E1">Warnings</text>
      <rect x="91" y="57" width="98" height="9" rx="5" fill="#1E293B"/>
      <rect x="91" y="57" width="58" height="9" rx="5" fill="#FBBF24"/>
      <text x="210" y="69" fill="#FDE68A" font-weight="700">9</text>
      <text x="0" y="118" fill="#CBD5E1">Info</text>
      <rect x="91" y="106" width="98" height="9" rx="5" fill="#1E293B"/>
      <rect x="91" y="106" width="71" height="9" rx="5" fill="#38BDF8"/>
      <text x="210" y="118" fill="#7DD3FC" font-weight="700">11</text>
    </g>
    <line x1="0" y1="268" x2="435" y2="268" stroke="#1E293B"/>
    <g font-family="Inter, ui-sans-serif, system-ui, sans-serif">
      <text x="38" y="304" font-size="30" font-weight="700" fill="#F8FAFC">21</text>
      <text x="38" y="326" font-size="14" fill="#64748B">findings</text>
      <text x="185" y="304" font-size="30" font-weight="700" fill="#F8FAFC">2</text>
      <text x="185" y="326" font-size="14" fill="#64748B">registry risks</text>
      <text x="330" y="304" font-size="30" font-weight="700" fill="#F8FAFC">5</text>
      <text x="330" y="326" font-size="14" fill="#64748B">a11y checks</text>
    </g>
  </g>
  <defs>
    <pattern id="grid" width="44" height="44" patternUnits="userSpaceOnUse">
      <path d="M44 0H0V44" stroke="#94A3B8" stroke-opacity="0.08"/>
    </pattern>
  </defs>
</svg>
